<?xml version="1.0" encoding="UTF-8" standalone="no"?><!-- Generator: Gravit.io -->
<svg xmlns="http://www.w3.org/2000/svg"
     style="isolation:isolate" viewBox="0 0 16 16" width="16" height="16">
    <defs>
        <clipPath id="_clipPath_8p9TWJsOGHiVnnzy63oEa5lO810grHCU">
            <rect width="16" height="16"/>
        </clipPath>
    </defs>
    <g clip-path="url(#_clipPath_8p9TWJsOGHiVnnzy63oEa5lO810grHCU)">
        <clipPath id="_clipPath_GIZCZ2h5ijntW50IAZm0qvvYei0OMem2">
            <rect x="0" y="0" width="16" height="16" transform="matrix(1,0,0,1,0,0)" fill="rgb(255,255,255)"/>
        </clipPath>
        <g clip-path="url(#_clipPath_GIZCZ2h5ijntW50IAZm0qvvYei0OMem2)">
            <g>
                <clipPath id="_clipPath_JBk25z4zsDd3sl2RNUrrdWa32QJEz3SY">
                    <rect x="0" y="0" width="16" height="16" transform="matrix(1,0,0,1,0,0)" fill="rgb(255,255,255)"/>
                </clipPath>
                <g clip-path="url(#_clipPath_JBk25z4zsDd3sl2RNUrrdWa32QJEz3SY)">
                    <g>
                        <g>
                            <clipPath id="_clipPath_vfFr6Q4HNF9iybpyfwECKJNTMMcbMaSj">
                                <rect x="0" y="0" width="16" height="16" transform="matrix(1,0,0,1,0,0)"
                                      fill="rgb(255,255,255)"/>
                            </clipPath>
                            <g clip-path="url(#_clipPath_vfFr6Q4HNF9iybpyfwECKJNTMMcbMaSj)">
                                <g>
                                    <g>
                                        <g>
                                            <g>
                                                <rect x="1.45" y="2.454" width="13.075" height="13.146"
                                                      transform="matrix(1,0,0,1,0,0)" fill="rgb(90,88,70)"/>
                                                <rect x="2.267" y="3.276" width="11.441" height="11.503"
                                                      transform="matrix(1,0,0,1,0,0)" fill="rgb(126,81,57)"/>
                                                <rect x="3.084" y="4.097" width="9.806" height="9.859"
                                                      transform="matrix(1,0,0,1,0,0)" fill="rgb(65,40,24)"/>
                                                <rect x="3.084" y="4.097" width="0.817" height="0.822"
                                                      transform="matrix(1,0,0,1,0,0)" fill="rgb(126,81,57)"/>
                                                <rect x="2.977" y="3.943" width="0.925" height="0.976"
                                                      transform="matrix(1,0,0,1,0,0)" fill="rgb(126,81,57)"/>
                                                <rect x="2.977" y="5.741" width="0.925" height="0.822"
                                                      transform="matrix(1,0,0,1,0,0)" fill="rgb(126,81,57)"/>
                                                <rect x="2.977" y="7.384" width="0.925" height="0.822"
                                                      transform="matrix(1,0,0,1,0,0)" fill="rgb(126,81,57)"/>
                                                <rect x="2.977" y="10.67" width="0.925" height="0.822"
                                                      transform="matrix(1,0,0,1,0,0)" fill="rgb(126,81,57)"/>
                                                <rect x="2.977" y="12.314" width="0.925" height="0.822"
                                                      transform="matrix(1,0,0,1,0,0)" fill="rgb(126,81,57)"/>
                                                <rect x="3.902" y="11.492" width="0.817" height="0.822"
                                                      transform="matrix(1,0,0,1,0,0)" fill="rgb(126,81,57)"/>
                                                <rect x="7.17" y="11.492" width="0.817" height="0.822"
                                                      transform="matrix(1,0,0,1,0,0)" fill="rgb(126,81,57)"/>
                                                <rect x="10.439" y="11.492" width="0.817" height="0.822"
                                                      transform="matrix(1,0,0,1,0,0)" fill="rgb(126,81,57)"/>
                                                <rect x="4.719" y="12.314" width="0.817" height="0.822"
                                                      transform="matrix(1,0,0,1,0,0)" fill="rgb(126,81,57)"/>
                                                <rect x="5.536" y="13.135" width="0.817" height="0.993"
                                                      transform="matrix(1,0,0,1,0,0)" fill="rgb(126,81,57)"/>
                                                <rect x="8.805" y="13.135" width="0.817" height="0.993"
                                                      transform="matrix(1,0,0,1,0,0)" fill="rgb(126,81,57)"/>
                                                <rect x="6.353" y="12.314" width="0.817" height="0.822"
                                                      transform="matrix(1,0,0,1,0,0)" fill="rgb(126,81,57)"/>
                                                <rect x="7.988" y="12.314" width="0.817" height="0.822"
                                                      transform="matrix(1,0,0,1,0,0)" fill="rgb(126,81,57)"/>
                                                <rect x="9.622" y="12.314" width="0.817" height="0.822"
                                                      transform="matrix(1,0,0,1,0,0)" fill="rgb(126,81,57)"/>
                                                <rect x="11.258" y="12.314" width="0.817" height="0.822"
                                                      transform="matrix(1,0,0,1,0,0)" fill="rgb(126,81,57)"/>
                                                <rect x="3.902" y="8.205" width="0.817" height="0.822"
                                                      transform="matrix(1,0,0,1,0,0)" fill="rgb(126,81,57)"/>
                                                <rect x="7.17" y="8.205" width="0.817" height="0.822"
                                                      transform="matrix(1,0,0,1,0,0)" fill="rgb(126,81,57)"/>
                                                <rect x="10.439" y="8.205" width="0.817" height="0.822"
                                                      transform="matrix(1,0,0,1,0,0)" fill="rgb(126,81,57)"/>
                                                <rect x="7.988" y="3.943" width="0.817" height="0.976"
                                                      transform="matrix(1,0,0,1,0,0)" fill="rgb(126,81,57)"/>
                                                <rect x="9.622" y="5.741" width="0.817" height="0.822"
                                                      transform="matrix(1,0,0,1,0,0)" fill="rgb(126,81,57)"/>
                                                <rect x="10.439" y="4.919" width="0.817" height="0.822"
                                                      transform="matrix(1,0,0,1,0,0)" fill="rgb(126,81,57)"/>
                                                <g>
                                                    <rect x="9.622" y="3.943" width="0.817" height="0.976"
                                                          transform="matrix(1,0,0,1,0,0)" fill="rgb(126,81,57)"/>
                                                </g>
                                                <rect x="5.536" y="6.562" width="0.817" height="0.822"
                                                      transform="matrix(1,0,0,1,0,0)" fill="rgb(126,81,57)"/>
                                                <rect x="8.805" y="6.562" width="0.817" height="0.822"
                                                      transform="matrix(1,0,0,1,0,0)" fill="rgb(126,81,57)"/>
                                                <rect x="11.256" y="3.943" width="0.817" height="0.976"
                                                      transform="matrix(1,0,0,1,0,0)" fill="rgb(126,81,57)"/>
                                                <rect x="11.256" y="5.741" width="0.817" height="0.822"
                                                      transform="matrix(1,0,0,1,0,0)" fill="rgb(126,81,57)"/>
                                                <rect x="4.719" y="5.741" width="0.817" height="0.822"
                                                      transform="matrix(1,0,0,1,0,0)" fill="rgb(126,81,57)"/>
                                                <rect x="4.719" y="3.943" width="0.817" height="0.976"
                                                      transform="matrix(1,0,0,1,0,0)" fill="rgb(126,81,57)"/>
                                                <rect x="6.353" y="3.943" width="0.817" height="0.976"
                                                      transform="matrix(1,0,0,1,0,0)" fill="rgb(126,81,57)"/>
                                                <rect x="7.17" y="4.919" width="0.817" height="0.822"
                                                      transform="matrix(1,0,0,1,0,0)" fill="rgb(126,81,57)"/>
                                                <rect x="7.988" y="5.741" width="0.817" height="0.822"
                                                      transform="matrix(1,0,0,1,0,0)" fill="rgb(126,81,57)"/>
                                                <rect x="6.353" y="5.741" width="0.817" height="0.822"
                                                      transform="matrix(1,0,0,1,0,0)" fill="rgb(126,81,57)"/>
                                                <rect x="3.902" y="4.919" width="0.817" height="0.822"
                                                      transform="matrix(1,0,0,1,0,0)" fill="rgb(126,81,57)"/>
                                                <rect x="2.977" y="9.027" width="0.925" height="0.822"
                                                      transform="matrix(1,0,0,1,0,0)" fill="rgb(126,81,57)"/>
                                                <rect x="4.719" y="9.027" width="0.817" height="0.822"
                                                      transform="matrix(1,0,0,1,0,0)" fill="rgb(126,81,57)"/>
                                                <rect x="6.353" y="9.027" width="0.817" height="0.822"
                                                      transform="matrix(1,0,0,1,0,0)" fill="rgb(126,81,57)"/>
                                                <rect x="7.988" y="9.027" width="0.817" height="0.822"
                                                      transform="matrix(1,0,0,1,0,0)" fill="rgb(126,81,57)"/>
                                                <rect x="9.622" y="9.027" width="0.817" height="0.822"
                                                      transform="matrix(1,0,0,1,0,0)" fill="rgb(126,81,57)"/>
                                                <rect x="11.256" y="9.027" width="0.817" height="0.822"
                                                      transform="matrix(1,0,0,1,0,0)" fill="rgb(126,81,57)"/>
                                                <rect x="5.536" y="9.849" width="0.817" height="0.822"
                                                      transform="matrix(1,0,0,1,0,0)" fill="rgb(126,81,57)"/>
                                                <rect x="8.805" y="9.849" width="0.817" height="0.822"
                                                      transform="matrix(1,0,0,1,0,0)" fill="rgb(126,81,57)"/>
                                                <rect x="4.719" y="10.67" width="0.817" height="0.822"
                                                      transform="matrix(1,0,0,1,0,0)" fill="rgb(126,81,57)"/>
                                                <rect x="6.353" y="10.67" width="0.817" height="0.822"
                                                      transform="matrix(1,0,0,1,0,0)" fill="rgb(126,81,57)"/>
                                                <rect x="7.988" y="10.67" width="0.817" height="0.822"
                                                      transform="matrix(1,0,0,1,0,0)" fill="rgb(126,81,57)"/>
                                                <rect x="9.622" y="10.67" width="0.817" height="0.822"
                                                      transform="matrix(1,0,0,1,0,0)" fill="rgb(126,81,57)"/>
                                                <rect x="11.256" y="10.67" width="0.817" height="0.822"
                                                      transform="matrix(1,0,0,1,0,0)" fill="rgb(126,81,57)"/>
                                                <rect x="12.074" y="6.562" width="0.981" height="0.822"
                                                      transform="matrix(1,0,0,1,0,0)" fill="rgb(126,81,57)"/>
                                                <rect x="12.074" y="9.849" width="0.981" height="0.822"
                                                      transform="matrix(1,0,0,1,0,0)" fill="rgb(126,81,57)"/>
                                                <rect x="12.074" y="13.142" width="0.981" height="0.986"
                                                      transform="matrix(1,0,0,1,0,0)" fill="rgb(126,81,57)"/>
                                                <rect x="4.719" y="7.384" width="0.817" height="0.822"
                                                      transform="matrix(1,0,0,1,0,0)" fill="rgb(126,81,57)"/>
                                                <rect x="6.353" y="7.384" width="0.817" height="0.822"
                                                      transform="matrix(1,0,0,1,0,0)" fill="rgb(126,81,57)"/>
                                                <rect x="7.988" y="7.384" width="0.817" height="0.822"
                                                      transform="matrix(1,0,0,1,0,0)" fill="rgb(126,81,57)"/>
                                                <rect x="9.622" y="7.384" width="0.817" height="0.822"
                                                      transform="matrix(1,0,0,1,0,0)" fill="rgb(126,81,57)"/>
                                                <rect x="11.256" y="7.384" width="0.817" height="0.822"
                                                      transform="matrix(1,0,0,1,0,0)" fill="rgb(126,81,57)"/>
                                            </g>
                                            <g>
                                                <rect x="10.439" y="5.741" width="2.043" height="1.643"
                                                      transform="matrix(1,0,0,1,0,0)" fill="rgb(0,140,0)"/>
                                                <rect x="11.665" y="0.4" width="1.634" height="1.643"
                                                      transform="matrix(1,0,0,1,0,0)" fill="rgb(0,140,0)"/>
                                                <rect x="13.054" y="1.222" width="0.981" height="1.643"
                                                      transform="matrix(1,0,0,1,0,0)" fill="rgb(0,140,0)"/>
                                                <rect x="11.665" y="0.811" width="0.817" height="5.751"
                                                      transform="matrix(1,0,0,1,0,0)" fill="rgb(0,140,0)"/>
                                            </g>
                                        </g>
                                    </g>
                                </g>
                            </g>
                        </g>
                    </g>
                </g>
            </g>
        </g>
    </g>
</svg>