<?xml version="1.0" encoding="UTF-8" standalone="no"?><!-- Generator: Gravit.io -->
<svg xmlns="http://www.w3.org/2000/svg"
     style="isolation:isolate" width="16" height="16" viewBox="0 0 16 16">
    <defs>
        <clipPath id="_clipPath_vM5TbcfrGAxkZVVoorwH4VDlQpcBdMB1">
            <rect width="16" height="16"/>
        </clipPath>
    </defs>
    <g clip-path="url(#_clipPath_vM5TbcfrGAxkZVVoorwH4VDlQpcBdMB1)">
        <clipPath id="_clipPath_Ow0pzzwjfMbXVcf1FjfomedxPFJzqPWf">
            <rect x="0" y="0" width="16" height="16" transform="matrix(1,0,0,1,0,0)" fill="rgb(255,255,255)"/>
        </clipPath>
        <g clip-path="url(#_clipPath_Ow0pzzwjfMbXVcf1FjfomedxPFJzqPWf)">
            <g>
                <clipPath id="_clipPath_lGd17RVmNC4KgyU9z8t4jOeH70kzhihr">
                    <rect x="0" y="0" width="16" height="16" transform="matrix(1,0,0,1,0,0)" fill="rgb(255,255,255)"/>
                </clipPath>
                <g clip-path="url(#_clipPath_lGd17RVmNC4KgyU9z8t4jOeH70kzhihr)">
                    <g>
                        <g>
                            <path d=" M 7 1 L 3 5 L 7 5 L 7 1 L 7 1 Z " fill-rule="evenodd" fill="rgb(154,167,176)"
                                  fill-opacity="0.8"/>
                            <path d=" M 7 15 L 3 15 L 3 6 L 8 6 L 8 1 L 13 1 L 13 7 Q 9.073 7 7 7 C 7 8.125 7 13.711 7 15 Z "
                                  fill-rule="evenodd" fill="rgb(154,167,176)" fill-opacity="0.8"/>
                            <g>
                                <rect x="8" y="8" width="8" height="8" transform="matrix(1,0,0,1,0,0)"
                                      fill="rgb(90,88,70)"/>
                                <rect x="8.5" y="8.5" width="7" height="7" transform="matrix(1,0,0,1,0,0)"
                                      fill="rgb(126,81,57)"/>
                                <rect x="9" y="9" width="6" height="6" transform="matrix(1,0,0,1,0,0)"
                                      fill="rgb(65,40,24)"/>
                                <rect x="9" y="9" width="0.5" height="0.5" transform="matrix(1,0,0,1,0,0)"
                                      fill="rgb(126,81,57)"/>
                                <rect x="8.934" y="8.906" width="0.566" height="0.594" transform="matrix(1,0,0,1,0,0)"
                                      fill="rgb(126,81,57)"/>
                                <rect x="8.934" y="10" width="0.566" height="0.5" transform="matrix(1,0,0,1,0,0)"
                                      fill="rgb(126,81,57)"/>
                                <rect x="8.934" y="11" width="0.566" height="0.5" transform="matrix(1,0,0,1,0,0)"
                                      fill="rgb(126,81,57)"/>
                                <rect x="8.934" y="13" width="0.566" height="0.5" transform="matrix(1,0,0,1,0,0)"
                                      fill="rgb(126,81,57)"/>
                                <rect x="8.934" y="14" width="0.566" height="0.5" transform="matrix(1,0,0,1,0,0)"
                                      fill="rgb(126,81,57)"/>
                                <rect x="9.5" y="13.5" width="0.5" height="0.5" transform="matrix(1,0,0,1,0,0)"
                                      fill="rgb(126,81,57)"/>
                                <rect x="11.5" y="13.5" width="0.5" height="0.5" transform="matrix(1,0,0,1,0,0)"
                                      fill="rgb(126,81,57)"/>
                                <rect x="13.5" y="13.5" width="0.5" height="0.5" transform="matrix(1,0,0,1,0,0)"
                                      fill="rgb(126,81,57)"/>
                                <rect x="10" y="14" width="0.5" height="0.5" transform="matrix(1,0,0,1,0,0)"
                                      fill="rgb(126,81,57)"/>
                                <rect x="10.5" y="14.5" width="0.5" height="0.604" transform="matrix(1,0,0,1,0,0)"
                                      fill="rgb(126,81,57)"/>
                                <rect x="12.5" y="14.5" width="0.5" height="0.604" transform="matrix(1,0,0,1,0,0)"
                                      fill="rgb(126,81,57)"/>
                                <rect x="11" y="14" width="0.5" height="0.5" transform="matrix(1,0,0,1,0,0)"
                                      fill="rgb(126,81,57)"/>
                                <rect x="12" y="14" width="0.5" height="0.5" transform="matrix(1,0,0,1,0,0)"
                                      fill="rgb(126,81,57)"/>
                                <rect x="13" y="14" width="0.5" height="0.5" transform="matrix(1,0,0,1,0,0)"
                                      fill="rgb(126,81,57)"/>
                                <rect x="14.001" y="14" width="0.5" height="0.5" transform="matrix(1,0,0,1,0,0)"
                                      fill="rgb(126,81,57)"/>
                                <rect x="9.5" y="11.5" width="0.5" height="0.5" transform="matrix(1,0,0,1,0,0)"
                                      fill="rgb(126,81,57)"/>
                                <rect x="11.5" y="11.5" width="0.5" height="0.5" transform="matrix(1,0,0,1,0,0)"
                                      fill="rgb(126,81,57)"/>
                                <rect x="13.5" y="11.5" width="0.5" height="0.5" transform="matrix(1,0,0,1,0,0)"
                                      fill="rgb(126,81,57)"/>
                                <rect x="12" y="8.906" width="0.5" height="0.594" transform="matrix(1,0,0,1,0,0)"
                                      fill="rgb(126,81,57)"/>
                                <rect x="13" y="10" width="0.5" height="0.5" transform="matrix(1,0,0,1,0,0)"
                                      fill="rgb(126,81,57)"/>
                                <rect x="13.5" y="9.5" width="0.5" height="0.5" transform="matrix(1,0,0,1,0,0)"
                                      fill="rgb(126,81,57)"/>
                                <g>
                                    <rect x="13" y="8.906" width="0.5" height="0.594" transform="matrix(1,0,0,1,0,0)"
                                          fill="rgb(126,81,57)"/>
                                </g>
                                <rect x="10.5" y="10.5" width="0.5" height="0.5" transform="matrix(1,0,0,1,0,0)"
                                      fill="rgb(126,81,57)"/>
                                <rect x="12.5" y="10.5" width="0.5" height="0.5" transform="matrix(1,0,0,1,0,0)"
                                      fill="rgb(126,81,57)"/>
                                <rect x="14" y="8.906" width="0.5" height="0.594" transform="matrix(1,0,0,1,0,0)"
                                      fill="rgb(126,81,57)"/>
                                <rect x="14" y="10" width="0.5" height="0.5" transform="matrix(1,0,0,1,0,0)"
                                      fill="rgb(126,81,57)"/>
                                <rect x="10" y="10" width="0.5" height="0.5" transform="matrix(1,0,0,1,0,0)"
                                      fill="rgb(126,81,57)"/>
                                <rect x="10" y="8.906" width="0.5" height="0.594" transform="matrix(1,0,0,1,0,0)"
                                      fill="rgb(126,81,57)"/>
                                <rect x="11" y="8.906" width="0.5" height="0.594" transform="matrix(1,0,0,1,0,0)"
                                      fill="rgb(126,81,57)"/>
                                <rect x="11.5" y="9.5" width="0.5" height="0.5" transform="matrix(1,0,0,1,0,0)"
                                      fill="rgb(126,81,57)"/>
                                <rect x="12" y="10" width="0.5" height="0.5" transform="matrix(1,0,0,1,0,0)"
                                      fill="rgb(126,81,57)"/>
                                <rect x="11" y="10" width="0.5" height="0.5" transform="matrix(1,0,0,1,0,0)"
                                      fill="rgb(126,81,57)"/>
                                <rect x="9.5" y="9.5" width="0.5" height="0.5" transform="matrix(1,0,0,1,0,0)"
                                      fill="rgb(126,81,57)"/>
                                <rect x="8.934" y="12" width="0.566" height="0.5" transform="matrix(1,0,0,1,0,0)"
                                      fill="rgb(126,81,57)"/>
                                <rect x="10" y="12" width="0.5" height="0.5" transform="matrix(1,0,0,1,0,0)"
                                      fill="rgb(126,81,57)"/>
                                <rect x="11" y="12" width="0.5" height="0.5" transform="matrix(1,0,0,1,0,0)"
                                      fill="rgb(126,81,57)"/>
                                <rect x="12" y="12" width="0.5" height="0.5" transform="matrix(1,0,0,1,0,0)"
                                      fill="rgb(126,81,57)"/>
                                <rect x="13" y="12" width="0.5" height="0.5" transform="matrix(1,0,0,1,0,0)"
                                      fill="rgb(126,81,57)"/>
                                <rect x="14" y="12" width="0.5" height="0.5" transform="matrix(1,0,0,1,0,0)"
                                      fill="rgb(126,81,57)"/>
                                <rect x="10.5" y="12.5" width="0.5" height="0.5" transform="matrix(1,0,0,1,0,0)"
                                      fill="rgb(126,81,57)"/>
                                <rect x="12.5" y="12.5" width="0.5" height="0.5" transform="matrix(1,0,0,1,0,0)"
                                      fill="rgb(126,81,57)"/>
                                <rect x="10" y="13" width="0.5" height="0.5" transform="matrix(1,0,0,1,0,0)"
                                      fill="rgb(126,81,57)"/>
                                <rect x="11" y="13" width="0.5" height="0.5" transform="matrix(1,0,0,1,0,0)"
                                      fill="rgb(126,81,57)"/>
                                <rect x="12" y="13" width="0.5" height="0.5" transform="matrix(1,0,0,1,0,0)"
                                      fill="rgb(126,81,57)"/>
                                <rect x="13" y="13" width="0.5" height="0.5" transform="matrix(1,0,0,1,0,0)"
                                      fill="rgb(126,81,57)"/>
                                <rect x="14" y="13" width="0.5" height="0.5" transform="matrix(1,0,0,1,0,0)"
                                      fill="rgb(126,81,57)"/>
                                <rect x="14.5" y="10.5" width="0.6" height="0.5" transform="matrix(1,0,0,1,0,0)"
                                      fill="rgb(126,81,57)"/>
                                <rect x="14.5" y="12.5" width="0.6" height="0.5" transform="matrix(1,0,0,1,0,0)"
                                      fill="rgb(126,81,57)"/>
                                <rect x="14.5" y="14.504" width="0.6" height="0.6" transform="matrix(1,0,0,1,0,0)"
                                      fill="rgb(126,81,57)"/>
                                <rect x="10" y="11" width="0.5" height="0.5" transform="matrix(1,0,0,1,0,0)"
                                      fill="rgb(126,81,57)"/>
                                <rect x="11" y="11" width="0.5" height="0.5" transform="matrix(1,0,0,1,0,0)"
                                      fill="rgb(126,81,57)"/>
                                <rect x="12" y="11" width="0.5" height="0.5" transform="matrix(1,0,0,1,0,0)"
                                      fill="rgb(126,81,57)"/>
                                <rect x="13" y="11" width="0.5" height="0.5" transform="matrix(1,0,0,1,0,0)"
                                      fill="rgb(126,81,57)"/>
                                <rect x="14" y="11" width="0.5" height="0.5" transform="matrix(1,0,0,1,0,0)"
                                      fill="rgb(126,81,57)"/>
                            </g>
                            <g>
                                <rect x="13.5" y="10" width="1.25" height="1" transform="matrix(1,0,0,1,0,0)"
                                      fill="rgb(0,140,0)"/>
                                <rect x="14.25" y="6.75" width="1" height="1" transform="matrix(1,0,0,1,0,0)"
                                      fill="rgb(0,140,0)"/>
                                <rect x="15.1" y="7.25" width="0.6" height="1" transform="matrix(1,0,0,1,0,0)"
                                      fill="rgb(0,140,0)"/>
                                <rect x="14.25" y="7" width="0.5" height="3.5" transform="matrix(1,0,0,1,0,0)"
                                      fill="rgb(0,140,0)"/>
                            </g>
                        </g>
                    </g>
                </g>
            </g>
        </g>
    </g>
</svg>