<?xml version="1.0" encoding="UTF-8" standalone="no"?><!-- Generator: Gravit.io -->
<svg xmlns="http://www.w3.org/2000/svg"
     style="isolation:isolate" viewBox="0 0 32 32" width="32" height="32">
    <defs>
        <clipPath id="_clipPath_HgycGLt7b0GRkyiviBm8duG3Zwba5dVd">
            <rect width="32" height="32"/>
        </clipPath>
    </defs>
    <g clip-path="url(#_clipPath_HgycGLt7b0GRkyiviBm8duG3Zwba5dVd)">
        <clipPath id="_clipPath_MEIt6jcsu21m3wWwSKACeyx0QjXA9eo1">
            <rect x="0" y="0" width="32" height="32" transform="matrix(1,0,0,1,0,0)" fill="rgb(255,255,255)"/>
        </clipPath>
        <g clip-path="url(#_clipPath_MEIt6jcsu21m3wWwSKACeyx0QjXA9eo1)">
            <g>
                <clipPath id="_clipPath_irawChA75j4RoVoyYilqdcLiSQ2LwL1g">
                    <rect x="0" y="0" width="32" height="32" transform="matrix(1,0,0,1,0,0)" fill="rgb(255,255,255)"/>
                </clipPath>
                <g clip-path="url(#_clipPath_irawChA75j4RoVoyYilqdcLiSQ2LwL1g)">
                    <g>
                        <g>
                            <clipPath id="_clipPath_RwfRDMxzhtjf4jz05FvY4FLqTkYH5ucV">
                                <rect x="0" y="0" width="32" height="32" transform="matrix(1,0,0,1,0,0)"
                                      fill="rgb(255,255,255)"/>
                            </clipPath>
                            <g clip-path="url(#_clipPath_RwfRDMxzhtjf4jz05FvY4FLqTkYH5ucV)">
                                <g>
                                    <g>
                                        <g>
                                            <clipPath id="_clipPath_1D0pSBSDbkp7HOErlXV5u0bZu1YQTDUo">
                                                <rect x="0" y="0" width="32" height="32" transform="matrix(1,0,0,1,0,0)"
                                                      fill="rgb(255,255,255)"/>
                                            </clipPath>
                                            <g clip-path="url(#_clipPath_1D0pSBSDbkp7HOErlXV5u0bZu1YQTDUo)">
                                                <g>
                                                    <g>
                                                        <g>
                                                            <g>
                                                                <clipPath
                                                                        id="_clipPath_RJEX3dGziZwmC7QRUNFd3KvUJAi0Qtas">
                                                                    <rect x="0" y="0" width="32" height="32"
                                                                          transform="matrix(1,0,0,1,0,0)"
                                                                          fill="rgb(255,255,255)"/>
                                                                </clipPath>
                                                                <g clip-path="url(#_clipPath_RJEX3dGziZwmC7QRUNFd3KvUJAi0Qtas)">
                                                                    <g>
                                                                        <g>
                                                                            <g>
                                                                                <g>
                                                                                    <g>
                                                                                        <clipPath
                                                                                                id="_clipPath_KeeivMKtyE0X3ZqgbADcsxs13paQWsR0">
                                                                                            <rect x="0" y="0" width="32"
                                                                                                  height="32"
                                                                                                  transform="matrix(1,0,0,1,0,0)"
                                                                                                  fill="rgb(255,255,255)"/>
                                                                                        </clipPath>
                                                                                        <g clip-path="url(#_clipPath_KeeivMKtyE0X3ZqgbADcsxs13paQWsR0)">
                                                                                            <g>
                                                                                                <g>
                                                                                                    <g>
                                                                                                        <g>
                                                                                                            <g>
                                                                                                                <g>
                                                                                                                    <g>
                                                                                                                        <rect x="0"
                                                                                                                              y="0"
                                                                                                                              width="32"
                                                                                                                              height="32"
                                                                                                                              transform="matrix(1,0,0,1,0,0)"
                                                                                                                              fill="rgb(129,63,87)"/>
                                                                                                                        <rect x="2"
                                                                                                                              y="2"
                                                                                                                              width="28"
                                                                                                                              height="28"
                                                                                                                              transform="matrix(1,0,0,1,0,0)"
                                                                                                                              fill="rgb(179,63,107)"/>
                                                                                                                        <rect x="4"
                                                                                                                              y="4"
                                                                                                                              width="24"
                                                                                                                              height="24"
                                                                                                                              transform="matrix(1,0,0,1,0,0)"
                                                                                                                              fill="rgb(134,63,90)"/>
                                                                                                                        <rect x="4"
                                                                                                                              y="4"
                                                                                                                              width="2"
                                                                                                                              height="2"
                                                                                                                              transform="matrix(1,0,0,1,0,0)"
                                                                                                                              fill="rgb(126,81,57)"/>
                                                                                                                        <g/>
                                                                                                                        <path d=" M 3.736 3.624 L 6 3.624 L 6 6 L 3.736 6 L 3.736 3.624 Z  M 3.736 8 L 6 8 L 6 10 L 3.736 10 L 3.736 8 Z  M 3.736 12 L 6 12 L 6 14 L 3.736 14 L 3.736 12 Z  M 3.736 20 L 6 20 L 6 22 L 3.736 22 L 3.736 20 Z  M 3.736 24 L 6 24 L 6 26 L 3.736 26 L 3.736 24 Z  M 6 22 L 8 22 L 8 24 L 6 24 L 6 22 Z  M 14.001 22 L 16.001 22 L 16.001 24 L 14.001 24 L 14.001 22 Z  M 22 22 L 24 22 L 24 24 L 22 24 L 22 22 Z  M 8 24 L 10 24 L 10 26 L 8 26 L 8 24 Z  M 10 26 L 12 26 L 12 28.416 L 10 28.416 L 10 26 Z  M 18.001 26 L 20.001 26 L 20.001 28.416 L 18.001 28.416 L 18.001 26 Z  M 12 24 L 14 24 L 14 26 L 12 26 L 12 24 Z  M 16.001 24 L 18.001 24 L 18.001 26 L 16.001 26 L 16.001 24 Z  M 20 24 L 22 24 L 22 26 L 20 26 L 20 24 Z  M 24.004 24 L 26.004 24 L 26.004 26 L 24.004 26 L 24.004 24 Z  M 6 13.999 L 8 13.999 L 8 15.999 L 6 15.999 L 6 13.999 Z  M 14.001 13.999 L 16.001 13.999 L 16.001 15.999 L 14.001 15.999 L 14.001 13.999 Z  M 22 13.999 L 24 13.999 L 24 15.999 L 22 15.999 L 22 13.999 Z  M 16.001 3.624 L 18.001 3.624 L 18.001 6 L 16.001 6 L 16.001 3.624 Z  M 20 8 L 22 8 L 22 10 L 20 10 L 20 8 Z  M 22 6 L 24 6 L 24 8 L 22 8 L 22 6 Z  M 20 3.624 L 22 3.624 L 22 6 L 20 6 L 20 3.624 Z  M 10 10 L 12 10 L 12 12 L 10 12 L 10 10 Z  M 18.001 10 L 20.001 10 L 20.001 12 L 18.001 12 L 18.001 10 Z  M 24 3.624 L 26 3.624 L 26 6 L 24 6 L 24 3.624 Z  M 24 8 L 26 8 L 26 10 L 24 10 L 24 8 Z  M 8 8 L 10 8 L 10 10 L 8 10 L 8 8 Z  M 8 3.624 L 10 3.624 L 10 6 L 8 6 L 8 3.624 Z  M 12 3.624 L 14 3.624 L 14 6 L 12 6 L 12 3.624 Z  M 14.001 6 L 16.001 6 L 16.001 8 L 14.001 8 L 14.001 6 Z  M 16.001 8 L 18.001 8 L 18.001 10 L 16.001 10 L 16.001 8 Z  M 12 8 L 14 8 L 14 10 L 12 10 L 12 8 Z  M 6 6 L 8 6 L 8 8 L 6 8 L 6 6 Z  M 3.736 15.999 L 6 15.999 L 6 17.999 L 3.736 17.999 L 3.736 15.999 Z  M 8 15.999 L 10 15.999 L 10 17.999 L 8 17.999 L 8 15.999 Z  M 12 15.999 L 14 15.999 L 14 17.999 L 12 17.999 L 12 15.999 Z  M 16.001 15.999 L 18.001 15.999 L 18.001 17.999 L 16.001 17.999 L 16.001 15.999 Z  M 20 15.999 L 22 15.999 L 22 17.999 L 20 17.999 L 20 15.999 Z  M 24 15.999 L 26 15.999 L 26 17.999 L 24 17.999 L 24 15.999 Z  M 10 17.999 L 12 17.999 L 12 19.999 L 10 19.999 L 10 17.999 Z  M 18.001 17.999 L 20.001 17.999 L 20.001 19.999 L 18.001 19.999 L 18.001 17.999 Z  M 8 20 L 10 20 L 10 22 L 8 22 L 8 20 Z  M 12 20 L 14 20 L 14 22 L 12 22 L 12 20 Z  M 16.001 20 L 18.001 20 L 18.001 22 L 16.001 22 L 16.001 20 Z  M 20 20 L 22 20 L 22 22 L 20 22 L 20 20 Z  M 24 20 L 26 20 L 26 22 L 24 22 L 24 20 Z  M 26 10 L 28.4 10 L 28.4 12 L 26 12 L 26 10 Z  M 26 17.999 L 28.4 17.999 L 28.4 19.999 L 26 19.999 L 26 17.999 Z  M 26 26.016 L 28.4 26.016 L 28.4 28.416 L 26 28.416 L 26 26.016 Z  M 8 12 L 10 12 L 10 14 L 8 14 L 8 12 Z  M 12 12 L 14 12 L 14 14 L 12 14 L 12 12 Z  M 16.001 12 L 18.001 12 L 18.001 14 L 16.001 14 L 16.001 12 Z  M 20 12 L 22 12 L 22 14 L 20 14 L 20 12 Z  M 24 12 L 26 12 L 26 14 L 24 14 L 24 12 Z "
                                                                                                                              fill-rule="evenodd"
                                                                                                                              fill="rgb(179,63,107)"/>
                                                                                                                    </g>
                                                                                                                </g>
                                                                                                            </g>
                                                                                                        </g>
                                                                                                    </g>
                                                                                                </g>
                                                                                            </g>
                                                                                        </g>
                                                                                    </g>
                                                                                </g>
                                                                            </g>
                                                                        </g>
                                                                    </g>
                                                                </g>
                                                            </g>
                                                        </g>
                                                    </g>
                                                </g>
                                            </g>
                                        </g>
                                    </g>
                                </g>
                            </g>
                        </g>
                    </g>
                </g>
            </g>
        </g>
    </g>
</svg>