<?xml version="1.0" encoding="UTF-8" standalone="no"?><!-- Generator: Gravit.io -->
<svg xmlns="http://www.w3.org/2000/svg"
     style="isolation:isolate" viewBox="0 0 32 32" width="32" height="32">
    <defs>
        <clipPath id="_clipPath_cPW6dnL2r2K1mRPUG7k96khyIV27juWm">
            <rect width="32" height="32"/>
        </clipPath>
    </defs>
    <g clip-path="url(#_clipPath_cPW6dnL2r2K1mRPUG7k96khyIV27juWm)">
        <clipPath id="_clipPath_eLmCdfJZrYJAC3FeaDIYfjSC5vv800g8">
            <rect x="0" y="0" width="32" height="32" transform="matrix(1,0,0,1,0,0)" fill="rgb(255,255,255)"/>
        </clipPath>
        <g clip-path="url(#_clipPath_eLmCdfJZrYJAC3FeaDIYfjSC5vv800g8)">
            <g>
                <clipPath id="_clipPath_kgFO13tuyoF2zKjp6iv7oSaLCWuLQByq">
                    <rect x="0" y="0" width="32" height="32" transform="matrix(1,0,0,1,0,0)" fill="rgb(255,255,255)"/>
                </clipPath>
                <g clip-path="url(#_clipPath_kgFO13tuyoF2zKjp6iv7oSaLCWuLQByq)">
                    <g>
                        <g>
                            <clipPath id="_clipPath_jt0uAz6zqvWOdLt0yRNMU65nHnfPEJoo">
                                <rect x="0" y="0" width="32" height="32" transform="matrix(1,0,0,1,0,0)"
                                      fill="rgb(255,255,255)"/>
                            </clipPath>
                            <g clip-path="url(#_clipPath_jt0uAz6zqvWOdLt0yRNMU65nHnfPEJoo)">
                                <g>
                                    <g>
                                        <g>
                                            <clipPath id="_clipPath_0DSXg6dQ2nHpJoskRBbEaFZUJLUqtMeP">
                                                <rect x="0" y="0" width="32" height="32" transform="matrix(1,0,0,1,0,0)"
                                                      fill="rgb(255,255,255)"/>
                                            </clipPath>
                                            <g clip-path="url(#_clipPath_0DSXg6dQ2nHpJoskRBbEaFZUJLUqtMeP)">
                                                <g>
                                                    <g>
                                                        <g>
                                                            <g>
                                                                <clipPath
                                                                        id="_clipPath_IcfO2rzm5QZ9YRinNOdF7EiuXfdk0dyQ">
                                                                    <rect x="0" y="0" width="32" height="32"
                                                                          transform="matrix(1,0,0,1,0,0)"
                                                                          fill="rgb(255,255,255)"/>
                                                                </clipPath>
                                                                <g clip-path="url(#_clipPath_IcfO2rzm5QZ9YRinNOdF7EiuXfdk0dyQ)">
                                                                    <g>
                                                                        <g>
                                                                            <g>
                                                                                <g>
                                                                                    <g>
                                                                                        <clipPath
                                                                                                id="_clipPath_G8Xz6wK2zCIGEbMnWUrLI36mHCip8As8">
                                                                                            <rect x="0" y="0" width="32"
                                                                                                  height="32"
                                                                                                  transform="matrix(1,0,0,1,0,0)"
                                                                                                  fill="rgb(255,255,255)"/>
                                                                                        </clipPath>
                                                                                        <g clip-path="url(#_clipPath_G8Xz6wK2zCIGEbMnWUrLI36mHCip8As8)">
                                                                                            <g>
                                                                                                <g>
                                                                                                    <g>
                                                                                                        <g>
                                                                                                            <g>
                                                                                                                <g>
                                                                                                                    <g>
                                                                                                                        <rect x="0"
                                                                                                                              y="0"
                                                                                                                              width="32"
                                                                                                                              height="32"
                                                                                                                              transform="matrix(1,0,0,1,0,0)"
                                                                                                                              fill="rgb(116,89,114)"/>
                                                                                                                        <rect x="2"
                                                                                                                              y="2"
                                                                                                                              width="28"
                                                                                                                              height="28"
                                                                                                                              transform="matrix(1,0,0,1,0,0)"
                                                                                                                              fill="rgb(155,109,154)"/>
                                                                                                                        <rect x="4"
                                                                                                                              y="4"
                                                                                                                              width="24"
                                                                                                                              height="24"
                                                                                                                              transform="matrix(1,0,0,1,0,0)"
                                                                                                                              fill="rgb(119,91,118)"/>
                                                                                                                        <rect x="4"
                                                                                                                              y="4"
                                                                                                                              width="2"
                                                                                                                              height="2"
                                                                                                                              transform="matrix(1,0,0,1,0,0)"
                                                                                                                              fill="rgb(126,81,57)"/>
                                                                                                                        <g/>
                                                                                                                        <path d=" M 3.736 3.624 L 6 3.624 L 6 6 L 3.736 6 L 3.736 3.624 Z  M 3.736 8 L 6 8 L 6 10 L 3.736 10 L 3.736 8 Z  M 3.736 12 L 6 12 L 6 14 L 3.736 14 L 3.736 12 Z  M 3.736 20 L 6 20 L 6 22 L 3.736 22 L 3.736 20 Z  M 3.736 24 L 6 24 L 6 26 L 3.736 26 L 3.736 24 Z  M 6 22 L 8 22 L 8 24 L 6 24 L 6 22 Z  M 14.001 22 L 16.001 22 L 16.001 24 L 14.001 24 L 14.001 22 Z  M 22 22 L 24 22 L 24 24 L 22 24 L 22 22 Z  M 8 24 L 10 24 L 10 26 L 8 26 L 8 24 Z  M 10 26 L 12 26 L 12 28.416 L 10 28.416 L 10 26 Z  M 18.001 26 L 20.001 26 L 20.001 28.416 L 18.001 28.416 L 18.001 26 Z  M 12 24 L 14 24 L 14 26 L 12 26 L 12 24 Z  M 16.001 24 L 18.001 24 L 18.001 26 L 16.001 26 L 16.001 24 Z  M 20 24 L 22 24 L 22 26 L 20 26 L 20 24 Z  M 24.004 24 L 26.004 24 L 26.004 26 L 24.004 26 L 24.004 24 Z  M 6 13.999 L 8 13.999 L 8 15.999 L 6 15.999 L 6 13.999 Z  M 14.001 13.999 L 16.001 13.999 L 16.001 15.999 L 14.001 15.999 L 14.001 13.999 Z  M 22 13.999 L 24 13.999 L 24 15.999 L 22 15.999 L 22 13.999 Z  M 16.001 3.624 L 18.001 3.624 L 18.001 6 L 16.001 6 L 16.001 3.624 Z  M 20 8 L 22 8 L 22 10 L 20 10 L 20 8 Z  M 22 6 L 24 6 L 24 8 L 22 8 L 22 6 Z  M 20 3.624 L 22 3.624 L 22 6 L 20 6 L 20 3.624 Z  M 10 10 L 12 10 L 12 12 L 10 12 L 10 10 Z  M 18.001 10 L 20.001 10 L 20.001 12 L 18.001 12 L 18.001 10 Z  M 24 3.624 L 26 3.624 L 26 6 L 24 6 L 24 3.624 Z  M 24 8 L 26 8 L 26 10 L 24 10 L 24 8 Z  M 8 8 L 10 8 L 10 10 L 8 10 L 8 8 Z  M 8 3.624 L 10 3.624 L 10 6 L 8 6 L 8 3.624 Z  M 12 3.624 L 14 3.624 L 14 6 L 12 6 L 12 3.624 Z  M 14.001 6 L 16.001 6 L 16.001 8 L 14.001 8 L 14.001 6 Z  M 16.001 8 L 18.001 8 L 18.001 10 L 16.001 10 L 16.001 8 Z  M 12 8 L 14 8 L 14 10 L 12 10 L 12 8 Z  M 6 6 L 8 6 L 8 8 L 6 8 L 6 6 Z  M 3.736 15.999 L 6 15.999 L 6 17.999 L 3.736 17.999 L 3.736 15.999 Z  M 8 15.999 L 10 15.999 L 10 17.999 L 8 17.999 L 8 15.999 Z  M 12 15.999 L 14 15.999 L 14 17.999 L 12 17.999 L 12 15.999 Z  M 16.001 15.999 L 18.001 15.999 L 18.001 17.999 L 16.001 17.999 L 16.001 15.999 Z  M 20 15.999 L 22 15.999 L 22 17.999 L 20 17.999 L 20 15.999 Z  M 24 15.999 L 26 15.999 L 26 17.999 L 24 17.999 L 24 15.999 Z  M 10 17.999 L 12 17.999 L 12 19.999 L 10 19.999 L 10 17.999 Z  M 18.001 17.999 L 20.001 17.999 L 20.001 19.999 L 18.001 19.999 L 18.001 17.999 Z  M 8 20 L 10 20 L 10 22 L 8 22 L 8 20 Z  M 12 20 L 14 20 L 14 22 L 12 22 L 12 20 Z  M 16.001 20 L 18.001 20 L 18.001 22 L 16.001 22 L 16.001 20 Z  M 20 20 L 22 20 L 22 22 L 20 22 L 20 20 Z  M 24 20 L 26 20 L 26 22 L 24 22 L 24 20 Z  M 26 10 L 28.4 10 L 28.4 12 L 26 12 L 26 10 Z  M 26 17.999 L 28.4 17.999 L 28.4 19.999 L 26 19.999 L 26 17.999 Z  M 26 26.016 L 28.4 26.016 L 28.4 28.416 L 26 28.416 L 26 26.016 Z  M 8 12 L 10 12 L 10 14 L 8 14 L 8 12 Z  M 12 12 L 14 12 L 14 14 L 12 14 L 12 12 Z  M 16.001 12 L 18.001 12 L 18.001 14 L 16.001 14 L 16.001 12 Z  M 20 12 L 22 12 L 22 14 L 20 14 L 20 12 Z  M 24 12 L 26 12 L 26 14 L 24 14 L 24 12 Z "
                                                                                                                              fill-rule="evenodd"
                                                                                                                              fill="rgb(155,109,154)"/>
                                                                                                                    </g>
                                                                                                                </g>
                                                                                                            </g>
                                                                                                        </g>
                                                                                                    </g>
                                                                                                </g>
                                                                                            </g>
                                                                                        </g>
                                                                                    </g>
                                                                                </g>
                                                                            </g>
                                                                        </g>
                                                                    </g>
                                                                </g>
                                                            </g>
                                                        </g>
                                                    </g>
                                                </g>
                                            </g>
                                        </g>
                                    </g>
                                </g>
                            </g>
                        </g>
                    </g>
                </g>
            </g>
        </g>
    </g>
</svg>